<?xml version="1.0" encoding="utf-8"?>
<!-- Generator: Adobe Illustrator 19.0.0, SVG Export Plug-In . SVG Version: 6.00 Build 0)  -->
<svg version="1.1" id="Layer_1" xmlns="http://www.w3.org/2000/svg" xmlns:xlink="http://www.w3.org/1999/xlink" x="0px" y="0px"
	 viewBox="0 0 960 560" style="enable-background:new 0 0 960 560;" xml:space="preserve">
<style type="text/css">
	.st0{fill:#3D58A6;}
</style>
<path class="st0" d="M522.4,298.9c-0.8-0.7-2.1-0.6-2.8,0.2l-13.7,16.1l-8.7-6.9c-0.9-0.7-2.1-0.5-2.8,0.3c-0.7,0.9-0.5,2.1,0.3,2.8
	l10.2,8.1c0.4,0.3,0.8,0.4,1.2,0.4c0.6,0,1.1-0.2,1.5-0.7l14.9-17.5C523.4,300.8,523.3,299.6,522.4,298.9z M508.6,332.1
	c-1.1,0-2,0.9-2,2c0,3.3-2.7,5.9-5.9,5.9h-52.5c-3.3,0-5.9-2.6-5.9-5.9V226.2c0-3.3,2.7-5.9,5.9-5.9h52.5c3.3,0,5.9,2.6,5.9,5.9
	v60.3c0,1.1,0.9,2,2,2s2-0.9,2-2v-33.6c1.5-0.3,2.6-1.6,2.6-3.2V241c0-1.6-1.1-2.9-2.6-3.2v-11.6c0-5.4-4.4-9.8-9.9-9.8h-52.5
	c-5.5,0-9.9,4.4-9.9,9.8V334c0,5.4,4.4,9.8,9.9,9.8h52.5c5,0,9.2-3.7,9.8-8.6c0.1-0.2,0.1-0.4,0.1-0.6V334
	C510.5,332.9,509.7,332.1,508.6,332.1z M484.3,226.4c1.1,0,2-0.9,2-2c0-1.1-0.9-2-2-2h-19.8c-1.1,0-2,0.9-2,2c0,1.1,0.9,2,2,2H484.3
	z M468.9,333.1c0,3,2.5,5.5,5.5,5.5c3,0,5.5-2.5,5.5-5.5s-2.5-5.5-5.5-5.5C471.4,327.7,468.9,330.1,468.9,333.1z M476,333.1
	c0,0.8-0.7,1.5-1.5,1.5s-1.5-0.7-1.5-1.5c0-0.8,0.7-1.5,1.5-1.5S476,332.3,476,333.1z M498,288.3c1.2,0,2.2-1,2.2-2.2v-44.1
	c0-3.7-3.5-6.9-7.6-6.9h-35.7c-4.2,0-7.6,3.4-7.6,7.5v73.5c0,4.2,3.4,7.5,7.6,7.5h31.2c1.2,0,2.2-1,2.2-2.2s-1-2.2-2.2-2.2h-31.2
	c-1.8,0-3.2-1.4-3.2-3.2v-73.5c0-1.8,1.4-3.2,3.2-3.2h35.7c1.9,0,3.2,1.5,3.2,2.5v44.1C495.9,287.3,496.8,288.3,498,288.3z"/>
</svg>
